<?xml version="1.0" encoding="UTF-8" standalone="no"?>
<!-- Generated by graphviz version 2.38.0 (20140413.2041)
 -->

<!-- Title: G Pages: 1 -->

<svg
   xmlns:dc="http://purl.org/dc/elements/1.1/"
   xmlns:cc="http://creativecommons.org/ns#"
   xmlns:rdf="http://www.w3.org/1999/02/22-rdf-syntax-ns#"
   xmlns:svg="http://www.w3.org/2000/svg"
   xmlns="http://www.w3.org/2000/svg"
   xmlns:sodipodi="http://sodipodi.sourceforge.net/DTD/sodipodi-0.dtd"
   xmlns:inkscape="http://www.inkscape.org/namespaces/inkscape"
   width="717pt"
   height="229pt"
   viewBox="0.00 0.00 717.20 229.20"
   version="1.1"
   id="svg112"
   sodipodi:docname="graph.svg"
   inkscape:export-filename="C:\Users\erikv\Downloads\twitter-gateway.png"
   inkscape:export-xdpi="91.900101"
   inkscape:export-ydpi="91.900101"
   inkscape:version="0.92.3 (2405546, 2018-03-11)">
  <metadata
     id="metadata118">
    <rdf:RDF>
      <cc:Work
         rdf:about="">
        <dc:format>image/svg+xml</dc:format>
        <dc:type
           rdf:resource="http://purl.org/dc/dcmitype/StillImage" />
      </cc:Work>
    </rdf:RDF>
  </metadata>
  <defs
     id="defs116" />
  <sodipodi:namedview
     pagecolor="#ffffff"
     bordercolor="#666666"
     borderopacity="1"
     objecttolerance="10"
     gridtolerance="10"
     guidetolerance="10"
     inkscape:pageopacity="0"
     inkscape:pageshadow="2"
     inkscape:window-width="922"
     inkscape:window-height="480"
     id="namedview114"
     showgrid="false"
     inkscape:zoom="1.291562"
     inkscape:cx="478"
     inkscape:cy="152.66666"
     inkscape:window-x="0"
     inkscape:window-y="0"
     inkscape:window-maximized="0"
     inkscape:current-layer="svg112" />
  <g
     id="graph0"
     class="graph"
     transform="translate(21.6,207.6)">
    <title
       id="title2">G</title>
    <polygon
       points="695.6,-207.6 695.6,21.6 -21.6,21.6 -21.6,-207.6 "
       id="polygon4"
       style="fill:#111111;stroke:none" />
    <!-- ../package.json -->
    <g
       id="node1"
       class="node">
      <title
         id="title6">../package.json</title>
      <path
         d="m 355.333,-125 c 0,0 -96.666,0 -96.666,0 -3.834,0 -7.667,3.833 -7.667,7.667 0,0 0,7.666 0,7.666 0,3.834 3.833,7.667 7.667,7.667 0,0 96.666,0 96.666,0 3.834,0 7.667,-3.833 7.667,-7.667 0,0 0,-7.666 0,-7.666 0,-3.834 -3.833,-7.667 -7.667,-7.667"
         id="path8"
         inkscape:connector-curvature="0"
         style="fill:none;stroke:#cfffac" />
      <text
         x="307"
         y="-109.8"
         font-size="14.00"
         id="text10"
         style="font-size:14px;font-family:Arial;text-anchor:middle;fill:#cfffac">../package.json</text>
    </g>
    <!-- app.js -->
    <g
       id="node2"
       class="node">
      <title
         id="title13">app.js</title>
      <path
         d="m 326.833,-84 c 0,0 -39.666,0 -39.666,0 -3.834,0 -7.667,3.8333 -7.667,7.6667 0,0 0,7.6666 0,7.6666 0,3.8334 3.833,7.6667 7.667,7.6667 0,0 39.666,0 39.666,0 3.834,0 7.667,-3.8333 7.667,-7.6667 0,0 0,-7.6666 0,-7.6666 0,-3.8334 -3.833,-7.6667 -7.667,-7.6667"
         id="path15"
         inkscape:connector-curvature="0"
         style="fill:none;stroke:#c6c5fe" />
      <text
         x="307"
         y="-68.800003"
         font-size="14.00"
         id="text17"
         style="font-size:14px;font-family:Arial;text-anchor:middle;fill:#c6c5fe">app.js</text>
    </g>
    <!-- helpers/utils.js -->
    <g
       id="node3"
       class="node">
      <title
         id="title20">helpers/utils.js</title>
      <path
         d="m 582.333,-146 c 0,0 -91.666,0 -91.666,0 -3.834,0 -7.667,3.833 -7.667,7.667 0,0 0,7.666 0,7.666 0,3.834 3.833,7.667 7.667,7.667 0,0 91.666,0 91.666,0 3.834,0 7.667,-3.833 7.667,-7.667 0,0 0,-7.666 0,-7.666 0,-3.834 -3.833,-7.667 -7.667,-7.667"
         id="path22"
         inkscape:connector-curvature="0"
         style="fill:none;stroke:#cfffac" />
      <text
         x="536.5"
         y="-130.8"
         font-size="14.00"
         id="text24"
         style="font-size:14px;font-family:Arial;text-anchor:middle;fill:#cfffac">helpers/utils.js</text>
    </g>
    <!-- app.js&#45;&gt;helpers/utils.js -->
    <g
       id="edge1"
       class="edge">
      <title
         id="title27">app.js-&gt;helpers/utils.js</title>
      <path
         d="m 334.666,-81.6821 c 9.121,-3.4025 19.299,-7.4935 28.334,-11.8179 16.708,-7.997 18.517,-14.879 36,-21 23.334,-8.17 50.044,-13.003 73.613,-15.862"
         id="path29"
         inkscape:connector-curvature="0"
         style="fill:none;stroke:#757575" />
      <polygon
         points="472.522,-133.873 482.849,-131.506 473.3,-126.917 "
         id="polygon31"
         style="fill:#757575;stroke:#757575" />
    </g>
    <!-- services/kafka&#45;service.js -->
    <g
       id="node4"
       class="node">
      <title
         id="title34">services/kafka-service.js</title>
      <path
         d="m 614.333,-105 c 0,0 -155.666,0 -155.666,0 -3.834,0 -7.667,3.833 -7.667,7.6667 0,0 0,7.6666 0,7.6666 0,3.8334 3.833,7.6667 7.667,7.6667 0,0 155.666,0 155.666,0 3.834,0 7.667,-3.8333 7.667,-7.6667 0,0 0,-7.6666 0,-7.6666 0,-3.8337 -3.833,-7.6667 -7.667,-7.6667"
         id="path36"
         inkscape:connector-curvature="0"
         style="fill:none;stroke:#cfffac" />
      <text
         x="536.5"
         y="-89.800003"
         font-size="14.00"
         id="text38"
         style="font-size:14px;font-family:Arial;text-anchor:middle;fill:#cfffac">services/kafka-service.js</text>
    </g>
    <!-- app.js&#45;&gt;services/kafka&#45;service.js -->
    <g
       id="edge2"
       class="edge">
      <title
         id="title41">app.js-&gt;services/kafka-service.js</title>
      <path
         d="m 334.542,-74.9501 c 26.146,-2.4134 67.654,-6.2449 106.176,-9.8008"
         id="path43"
         inkscape:connector-curvature="0"
         style="fill:none;stroke:#757575" />
      <polygon
         points="440.681,-88.2623 450.96,-85.6963 441.325,-81.2919 "
         id="polygon45"
         style="fill:#757575;stroke:#757575" />
    </g>
    <!-- services/simulation&#45;entity&#45;post&#45;to&#45;tweet.js -->
    <g
       id="node5"
       class="node">
      <title
         id="title48">services/simulation-entity-post-to-tweet.js</title>
      <path
         d="m 666.333,-64 c 0,0 -259.666,0 -259.666,0 -3.834,0 -7.667,3.8333 -7.667,7.6667 0,0 0,7.6666 0,7.6666 0,3.8334 3.833,7.6667 7.667,7.6667 0,0 259.666,0 259.666,0 3.834,0 7.667,-3.8333 7.667,-7.6667 0,0 0,-7.6666 0,-7.6666 C 674,-60.1667 670.167,-64 666.333,-64"
         id="path50"
         inkscape:connector-curvature="0"
         style="fill:none;stroke:#cfffac" />
      <text
         x="536.5"
         y="-48.799999"
         font-size="14.00"
         id="text52"
         style="font-size:14px;font-family:Arial;text-anchor:middle;fill:#cfffac">services/simulation-entity-post-to-tweet.js</text>
    </g>
    <!-- app.js&#45;&gt;services/simulation&#45;entity&#45;post&#45;to&#45;tweet.js -->
    <g
       id="edge3"
       class="edge">
      <title
         id="title55">app.js-&gt;services/simulation-entity-post-to-tweet.js</title>
      <path
         d="m 334.542,-70.1666 c 15.724,1.3823 37.004,3.253 59.848,5.2614"
         id="path57"
         inkscape:connector-curvature="0"
         style="fill:none;stroke:#757575" />
      <polygon
         points="394.967,-68.3681 404.622,-64.0057 394.354,-61.395 "
         id="polygon59"
         style="fill:#757575;stroke:#757575" />
    </g>
    <!-- services/twitter&#45;service.js -->
    <g
       id="node6"
       class="node">
      <title
         id="title62">services/twitter-service.js</title>
      <path
         d="m 616.333,-23 c 0,0 -159.666,0 -159.666,0 -3.834,0 -7.667,3.8333 -7.667,7.6667 0,0 0,7.66663 0,7.66663 C 449,-3.83333 452.833,0 456.667,0 c 0,0 159.666,0 159.666,0 3.834,0 7.667,-3.83333 7.667,-7.66667 0,0 0,-7.66663 0,-7.66663 C 624,-19.1667 620.167,-23 616.333,-23"
         id="path64"
         inkscape:connector-curvature="0"
         style="fill:none;stroke:#cfffac" />
      <text
         x="536.5"
         y="-7.8000002"
         font-size="14.00"
         id="text66"
         style="font-size:14px;font-family:Arial;text-anchor:middle;fill:#cfffac">services/twitter-service.js</text>
    </g>
    <!-- app.js&#45;&gt;services/twitter&#45;service.js -->
    <g
       id="edge4"
       class="edge">
      <title
         id="title69">app.js-&gt;services/twitter-service.js</title>
      <path
         d="m 329.829,-60.9626 c 18.065,9.0677 44.649,21.3209 69.171,28.4626 12.658,3.6863 26.175,6.7579 39.599,9.3087"
         id="path71"
         inkscape:connector-curvature="0"
         style="fill:none;stroke:#757575" />
      <polygon
         points="439.613,-26.5648 448.83,-21.3406 438.367,-19.6766 "
         id="polygon73"
         style="fill:#757575;stroke:#757575" />
    </g>
    <!-- cli.js -->
    <g
       id="node7"
       class="node">
      <title
         id="title76">cli.js</title>
      <path
         d="m 126.833,-104 c 0,0 -38.6663,0 -38.6663,0 -3.8334,0 -7.6667,3.833 -7.6667,7.6667 0,0 0,7.6666 0,7.6666 0,3.8334 3.8333,7.6667 7.6667,7.6667 0,0 38.6663,0 38.6663,0 3.834,0 7.667,-3.8333 7.667,-7.6667 0,0 0,-7.6666 0,-7.6666 0,-3.8337 -3.833,-7.6667 -7.667,-7.6667"
         id="path78"
         inkscape:connector-curvature="0"
         style="fill:none;stroke:#c6c5fe" />
      <text
         x="107.5"
         y="-88.800003"
         font-size="14.00"
         id="text80"
         style="font-size:14px;font-family:Arial;text-anchor:middle;fill:#c6c5fe">cli.js</text>
    </g>
    <!-- cli.js&#45;&gt;../package.json -->
    <g
       id="edge5"
       class="edge">
      <title
         id="title83">cli.js-&gt;../package.json</title>
      <path
         d="m 134.726,-95.2886 c 26.952,-2.8657 69.966,-7.4394 106.144,-11.2864"
         id="path85"
         inkscape:connector-curvature="0"
         style="fill:none;stroke:#757575" />
      <polygon
         points="240.559,-110.061 250.873,-107.638 241.3,-103.101 "
         id="polygon87"
         style="fill:#757575;stroke:#757575" />
    </g>
    <!-- cli.js&#45;&gt;app.js -->
    <g
       id="edge6"
       class="edge">
      <title
         id="title90">cli.js-&gt;app.js</title>
      <path
         d="m 134.726,-89.8442 c 34.506,3.4943 95.342,9.6549 134.451,13.6153"
         id="path92"
         inkscape:connector-curvature="0"
         style="fill:none;stroke:#757575" />
      <polygon
         points="269.753,-79.6886 279.349,-75.1988 269.047,-72.7242 "
         id="polygon94"
         style="fill:#757575;stroke:#757575" />
    </g>
    <!-- models/simulation&#45;entity&#45;post.js -->
    <g
       id="node8"
       class="node">
      <title
         id="title97">models/simulation-entity-post.js</title>
      <path
         d="m 207.333,-145 c 0,0 -199.66633,0 -199.66633,0 C 3.83333,-145 0,-141.167 0,-137.333 c 0,0 0,7.666 0,7.666 0,3.834 3.83333,7.667 7.66667,7.667 0,0 199.66633,0 199.66633,0 3.834,0 7.667,-3.833 7.667,-7.667 0,0 0,-7.666 0,-7.666 0,-3.834 -3.833,-7.667 -7.667,-7.667"
         id="path99"
         inkscape:connector-curvature="0"
         style="fill:none;stroke:#cfffac" />
      <text
         x="107.5"
         y="-129.8"
         font-size="14.00"
         id="text101"
         style="font-size:14px;font-family:Arial;text-anchor:middle;fill:#cfffac">models/simulation-entity-post.js</text>
    </g>
    <!-- models/tweet.js -->
    <g
       id="node9"
       class="node">
      <title
         id="title104">models/tweet.js</title>
      <path
         d="m 157.833,-186 c 0,0 -100.6663,0 -100.6663,0 -3.8334,0 -7.6667,3.833 -7.6667,7.667 0,0 0,7.666 0,7.666 0,3.834 3.8333,7.667 7.6667,7.667 0,0 100.6663,0 100.6663,0 3.834,0 7.667,-3.833 7.667,-7.667 0,0 0,-7.666 0,-7.666 0,-3.834 -3.833,-7.667 -7.667,-7.667"
         id="path106"
         inkscape:connector-curvature="0"
         style="fill:none;stroke:#cfffac" />
      <text
         x="107.5"
         y="-170.8"
         font-size="14.00"
         id="text108"
         style="font-size:14px;font-family:Arial;text-anchor:middle;fill:#cfffac">models/tweet.js</text>
    </g>
  </g>
</svg>
